<svg xmlns="http://www.w3.org/2000/svg" width="787.893" height="787.07" viewBox="0 0 787.893 787.07">
  <g id="Group_349" data-name="Group 349" transform="translate(-2406.124 -1094.001)">
    <g id="Group_206" data-name="Group 206" transform="translate(926 79)">
      <g id="Group_205" data-name="Group 205" transform="translate(1480.124 1015.001)">
        <path id="Path_187" data-name="Path 187" d="M1646.6,1020l-5.631,42.811-6.545-.86-19.793-32.092-3.814,28.987-7.885-1.038,5.626-42.811,6.545.864,19.793,32.092,3.814-28.987Z" transform="translate(-1182.097 -1015.001)"/>
        <path id="Path_188" data-name="Path 188" d="M1624.13,1056.326a21.229,21.229,0,0,1-5.877-9.9,22.937,22.937,0,0,1,6.131-21.921,21.252,21.252,0,0,1,10.16-5.421,26.154,26.154,0,0,1,22.932,6.411,21.326,21.326,0,0,1,5.883,9.876,23.023,23.023,0,0,1-6.144,21.979,21.32,21.32,0,0,1-10.153,5.394,26.153,26.153,0,0,1-22.932-6.415Zm20.595-.583a14.068,14.068,0,0,0,6.689-3.763,16.421,16.421,0,0,0,4.2-15.03,14.093,14.093,0,0,0-3.766-6.689,16.523,16.523,0,0,0-14.972-4.188,14.065,14.065,0,0,0-6.689,3.766,16.429,16.429,0,0,0-4.2,15.03,14.037,14.037,0,0,0,3.766,6.689,16.5,16.5,0,0,0,14.968,4.184Z" transform="translate(-1146.692 -1006.487)"/>
        <path id="Path_189" data-name="Path 189" d="M1636.81,1059.3a21.165,21.165,0,0,1-4.445-10.554,23.168,23.168,0,0,1,9.081-20.938,21.365,21.365,0,0,1,10.76-3.985,24.305,24.305,0,0,1,11.98,2.049,24.688,24.688,0,0,1,8.156,5.541,19.753,19.753,0,0,1,4.667,7.861l-6.689,2.419a15.109,15.109,0,0,0-8.584-9.218,16.19,16.19,0,0,0-8.073-1.374,14.073,14.073,0,0,0-7.183,2.779,16.545,16.545,0,0,0-6.209,14.382,14.02,14.02,0,0,0,2.9,7.131,16.2,16.2,0,0,0,6.535,4.941,15.023,15.023,0,0,0,12.617-.127l2.8,6.586a19.751,19.751,0,0,1-8.954,1.978,24.878,24.878,0,0,1-9.65-2.152A24.351,24.351,0,0,1,1636.81,1059.3Z" transform="translate(-1111.074 -993.821)"/>
        <path id="Path_190" data-name="Path 190" d="M1647.018,1062.982a21.223,21.223,0,0,1-3.057-11.106,22.928,22.928,0,0,1,11.692-19.526,21.237,21.237,0,0,1,11.232-2.55,26.138,26.138,0,0,1,20.427,12.233,21.309,21.309,0,0,1,3.074,11.079,23.072,23.072,0,0,1-11.727,19.58,21.343,21.343,0,0,1-11.219,2.522,26.136,26.136,0,0,1-20.423-12.233Zm20.016,4.869a14.033,14.033,0,0,0,7.446-1.868,16.409,16.409,0,0,0,8.019-13.388,14.07,14.07,0,0,0-1.868-7.446,16.5,16.5,0,0,0-13.333-7.985,14.051,14.051,0,0,0-7.446,1.868,16.4,16.4,0,0,0-8.018,13.388,14,14,0,0,0,1.867,7.446,16.518,16.518,0,0,0,13.333,7.985Z" transform="translate(-1082.53 -979.14)"/>
        <path id="Path_191" data-name="Path 191" d="M1682.2,1036.78l14.653,11.9a27.09,27.09,0,0,1,7.84,9.821,19.815,19.815,0,0,1,1.68,11.137,23.12,23.12,0,0,1-14.266,17.575,19.834,19.834,0,0,1-11.247.641,27.08,27.08,0,0,1-11.219-5.654l-14.656-11.895Zm-8.57,39.918a18.346,18.346,0,0,0,7.635,3.855,12.981,12.981,0,0,0,7.573-.524,16.631,16.631,0,0,0,9.838-12.114,13.061,13.061,0,0,0-1.042-7.521,18.386,18.386,0,0,0-5.346-6.682l-8.139-6.61-18.662,22.987Z" transform="translate(-1055.774 -962.148)"/>
        <path id="Path_192" data-name="Path 192" d="M1693.266,1095.806l-4.862,4.643-22.35-23.436,31.242-29.8,21.757,22.809-4.866,4.64-16.223-17.007-8.121,7.748,14.389,15.088-4.773,4.554-14.389-15.085-8.618,8.214Z" transform="translate(-1028.915 -936.827)"/>
        <path id="Path_193" data-name="Path 193" d="M1674.024,1067.5a5.148,5.148,0,0,1,10.253.929,5.147,5.147,0,0,1-10.253-.929Z" transform="translate(-1009.632 -899.014)"/>
        <path id="Path_194" data-name="Path 194" d="M1729.217,1096.292l-46.21,9.122-4.492-6.49,24.744-40.1,4.956,7.152-19.2,30.779,35.638-7.049Z" transform="translate(-998.677 -908.663)"/>
        <path id="Path_195" data-name="Path 195" d="M1720.823,1071.719l3.975,6.963-37.5,21.411-3.975-6.963Z" transform="translate(-987.005 -877.36)"/>
        <path id="Path_196" data-name="Path 196" d="M1725.5,1077.509l7.71,17.229a27.077,27.077,0,0,1,2.563,12.3,19.884,19.884,0,0,1-3.523,10.7,23.128,23.128,0,0,1-20.663,9.246,19.848,19.848,0,0,1-10.325-4.5,27.031,27.031,0,0,1-7.463-10.106l-7.71-17.229Zm-25.66,31.756a18.336,18.336,0,0,0,5.075,6.888,12.982,12.982,0,0,0,7,2.947,16.617,16.617,0,0,0,14.242-6.374,13.026,13.026,0,0,0,2.464-7.183,18.358,18.358,0,0,0-1.754-8.372l-4.284-9.571-27.023,12.093Z" transform="translate(-980.302 -863.309)"/>
        <path id="Path_197" data-name="Path 197" d="M1707.506,1133.884l-6.439,1.936-9.317-31.016,41.347-12.422,9.071,30.187-6.439,1.933-6.761-22.5-10.75,3.228,6,19.968-6.319,1.9-6-19.968-11.4,3.427Z" transform="translate(-966.557 -827.215)"/>
        <path id="Path_198" data-name="Path 198" d="M1696.954,1119.816a21.234,21.234,0,0,1,6.5-9.5,22.932,22.932,0,0,1,22.459-3.684,21.237,21.237,0,0,1,9.2,6.933,26.159,26.159,0,0,1,3.852,23.494,21.3,21.3,0,0,1-6.477,9.5,23.05,23.05,0,0,1-22.521,3.691,21.279,21.279,0,0,1-9.17-6.936,26.126,26.126,0,0,1-3.848-23.494Zm9.2,18.429a14.094,14.094,0,0,0,6.237,4.479,16.418,16.418,0,0,0,15.4-2.522,14.091,14.091,0,0,0,4.479-6.237,16.5,16.5,0,0,0-2.515-15.338,14.03,14.03,0,0,0-6.234-4.479,16.418,16.418,0,0,0-15.4,2.522,14.067,14.067,0,0,0-4.479,6.237,16.542,16.542,0,0,0,2.511,15.339Z" transform="translate(-957.042 -796.2)"/>
        <path id="Path_199" data-name="Path 199" d="M1697.021,1161.15l5.329-5.342a21.542,21.542,0,0,1-4.945-14.578,20.9,20.9,0,0,1,1.614-8.056,13.4,13.4,0,0,1,4.188-5.544,9.439,9.439,0,0,1,5.986-1.94,11.279,11.279,0,0,1,7.025,2.457,24.8,24.8,0,0,1,5.887,7.748,19.113,19.113,0,0,1,4.9-3.625,10.405,10.405,0,0,1,4.678-1.031,9.081,9.081,0,0,1,7.316,3.54q2.75,3.47,2.656,9.143a12.9,12.9,0,0,1-2.694,8.347,8.486,8.486,0,0,1-6.991,3.033,9.243,9.243,0,0,1-5.887-2.162,23.288,23.288,0,0,1-5.133-6.84l-9.033,9.17a28.533,28.533,0,0,0,7.237,2.522l-2.135,6.2a29.71,29.71,0,0,1-9.8-4.043l-5.267,5.342Zm9.783-9.835,11.1-11.233a17.583,17.583,0,0,0-3.831-5.274,6.537,6.537,0,0,0-4.2-1.58,5.091,5.091,0,0,0-4.417,2.333,10.949,10.949,0,0,0-1.769,6.326A14.387,14.387,0,0,0,1706.8,1151.315Zm28.165-11.514a4.144,4.144,0,0,0-3.276-1.532,5.339,5.339,0,0,0-2.824.758,21.541,21.541,0,0,0-3.656,3.022,22.639,22.639,0,0,0,3.464,5.209,4.662,4.662,0,0,0,3.276,1.5,3.737,3.737,0,0,0,3.043-1.275,5.553,5.553,0,0,0,1.168-3.653A5.991,5.991,0,0,0,1734.969,1139.8Z" transform="translate(-953.765 -746.388)"/>
        <path id="Path_200" data-name="Path 200" d="M1733.077,1178.41a14.189,14.189,0,0,1-6.384,5.3,16.21,16.21,0,0,1-16.1-3,14.124,14.124,0,0,1-4.075-7.254,23.929,23.929,0,0,1-.027-9.948l1.785-9.581-12.247-2.286,1.47-7.885,42.447,7.919-3.255,17.463A23.948,23.948,0,0,1,1733.077,1178.41Zm-19.121-5.795a8.789,8.789,0,0,0,12.487,2.326q2.688-2.256,3.646-7.412l1.717-9.218-16.856-3.146-1.717,9.218Q1712.266,1169.539,1713.956,1172.615Z" transform="translate(-956.17 -702.545)"/>
        <path id="Path_201" data-name="Path 201" d="M1703.943,1189.269l6.453-20.6-8.265-7.046,2.471-7.888,35.4,31.448-2.358,7.532-47.029,5.7,2.509-8Zm6.8-.651,20.444-2.128-15.595-13.354Z" transform="translate(-969.323 -678.338)"/>
        <path id="Path_202" data-name="Path 202" d="M1689.157,1193.552l15.174-2.731a16.59,16.59,0,0,1,.641-1.542l4.071-8.855-11.435-5.253,3.352-7.289,39.229,18.039-7.418,16.136a23.843,23.843,0,0,1-5.768,8.112,14.207,14.207,0,0,1-7.484,3.588,14.85,14.85,0,0,1-8.378-1.412,14.645,14.645,0,0,1-6.634-5.661,14.151,14.151,0,0,1-1.916-8.382l-17.038,3.1Zm32.263,11.641q3.15-1.542,5.339-6.3l3.917-8.523-15.636-7.186-3.913,8.519q-2.2,4.76-1.278,8.169a8.827,8.827,0,0,0,11.572,5.322Z" transform="translate(-981.598 -643.995)"/>
        <path id="Path_203" data-name="Path 203" d="M1717.332,1200.269l7.4-12.25,5.809,3.509L1711.6,1222.89l-5.809-3.509,7.4-12.247-31.153-18.816,4.147-6.864Z" transform="translate(-990.138 -611.061)"/>
        <path id="Path_204" data-name="Path 204" d="M1706.189,1245.029l-34-26.6,4.063-5.2,37.7-.74-23.027-18.011,4.9-6.268,34.01,26.6-4.067,5.2-37.7.74,23.027,18.011Z" transform="translate(-1014.036 -594.67)"/>
        <path id="Path_205" data-name="Path 205" d="M1668.154,1226.8l-4.736-4.773,22.994-22.805,30.405,30.656-22.377,22.195-4.736-4.773,16.685-16.551-7.909-7.967-14.8,14.681-4.647-4.685,14.8-14.684-8.386-8.45Z" transform="translate(-1035.312 -567.947)"/>
        <path id="Path_206" data-name="Path 206" d="M1660.013,1224.742l14.728,4.551q.4-.39,1.275-1.072l7.69-5.99-7.734-9.924,6.322-4.931,26.544,34.059-14.012,10.918a23.906,23.906,0,0,1-8.851,4.551,14.2,14.2,0,0,1-8.3-.261,14.838,14.838,0,0,1-6.8-5.106,14.609,14.609,0,0,1-3.283-8.077,14.156,14.156,0,0,1,2.155-8.324l-16.555-5.085Zm23.289,25.173q3.51.083,7.645-3.138l7.4-5.764-10.579-13.577-7.4,5.764q-4.137,3.223-4.894,6.665a7.842,7.842,0,0,0,1.785,6.706A7.746,7.746,0,0,0,1683.3,1249.915Z" transform="translate(-1060.109 -548.154)"/>
        <path id="Path_207" data-name="Path 207" d="M1664.066,1216.4a20.147,20.147,0,0,1,8.251-.614l.864,6.768a21.833,21.833,0,0,0-7.34.452,23.665,23.665,0,0,0-7.306,2.889q-4.107,2.492-5.339,5.047a4.677,4.677,0,0,0,.082,4.712,3.963,3.963,0,0,0,2.721,1.922,9.3,9.3,0,0,0,3.848-.141q2.093-.478,5.544-1.562a64.318,64.318,0,0,1,8.046-2.145,13.081,13.081,0,0,1,6.384.415,9.9,9.9,0,0,1,5.383,4.633,11.535,11.535,0,0,1,1.717,6.572,13.173,13.173,0,0,1-2.591,7.021,23.746,23.746,0,0,1-7.3,6.456,31.107,31.107,0,0,1-7.155,3.194,21.545,21.545,0,0,1-7.114,1l-1.076-6.638a25.007,25.007,0,0,0,6.377-.915,22.232,22.232,0,0,0,5.562-2.368q4.06-2.462,5.2-5.037a4.961,4.961,0,0,0-.233-4.838,3.858,3.858,0,0,0-2.7-1.9,9.608,9.608,0,0,0-3.831.165q-2.1.478-5.548,1.566a57.759,57.759,0,0,1-7.95,2.121,13.5,13.5,0,0,1-6.412-.4,9.681,9.681,0,0,1-5.332-4.554,11.4,11.4,0,0,1-1.7-6.545,13.206,13.206,0,0,1,2.632-7.011,23.936,23.936,0,0,1,7.326-6.473A33.072,33.072,0,0,1,1664.066,1216.4Z" transform="translate(-1079.747 -528.204)"/>
        <path id="Path_208" data-name="Path 208" d="M1644.8,1271.394a14.2,14.2,0,0,1-7.9-2.536,16.2,16.2,0,0,1-6.113-15.194,14.146,14.146,0,0,1,3.934-7.333,23.9,23.9,0,0,1,8.378-5.367l9.04-3.636-4.65-11.562,7.439-2.991,16.116,40.055-16.479,6.631A23.862,23.862,0,0,1,1644.8,1271.394Zm-5.38-19.241a8.8,8.8,0,0,0,4.74,11.788q3.351,1.044,8.214-.912l8.7-3.5-6.4-15.907-8.7,3.5Q1641.105,1249.08,1639.42,1252.153Z" transform="translate(-1115.06 -510.782)"/>
        <path id="Path_209" data-name="Path 209" d="M1623.933,1234.514l11.764,9.969a16.159,16.159,0,0,1,1.593-.487l9.42-2.495-3.218-12.165,7.748-2.049,11.051,41.738-17.171,4.547a23.918,23.918,0,0,1-9.924.713,14.246,14.246,0,0,1-7.532-3.5,14.84,14.84,0,0,1-4.246-7.361,14.663,14.663,0,0,1,.151-8.718,14.13,14.13,0,0,1,5.246-6.812l-13.231-11.171Zm11.548,32.293q3.192,1.455,8.262.11l9.061-2.4-4.4-16.637-9.061,2.4q-5.073,1.343-7.121,4.215a7.824,7.824,0,0,0-.987,6.864A7.74,7.74,0,0,0,1635.481,1266.808Z" transform="translate(-1151.391 -499.833)"/>
        <path id="Path_210" data-name="Path 210" d="M1605.125,1241.484l-.929-6.658,32.074-4.472,5.959,42.766-31.218,4.352-.929-6.662,23.275-3.242-1.549-11.12-20.646,2.878-.912-6.538,20.646-2.875-1.642-11.792Z" transform="translate(-1179.03 -492.39)"/>
        <path id="Path_211" data-name="Path 211" d="M1619.793,1232.869a20.2,20.2,0,0,1,7.474,3.554l-2.6,6.309a21.829,21.829,0,0,0-6.6-3.242,23.668,23.668,0,0,0-7.772-1.107q-4.811.134-7.141,1.745a4.667,4.667,0,0,0-2.258,4.136,3.918,3.918,0,0,0,1.412,3.012,9.229,9.229,0,0,0,3.413,1.785q2.051.627,5.592,1.388a65.11,65.11,0,0,1,8.049,2.118,13.127,13.127,0,0,1,5.343,3.522,9.872,9.872,0,0,1,2.378,6.689,11.47,11.47,0,0,1-1.762,6.559,13.153,13.153,0,0,1-5.722,4.821,23.761,23.761,0,0,1-9.541,1.995,30.956,30.956,0,0,1-7.8-.768,21.549,21.549,0,0,1-6.675-2.649l2.351-6.3a25.049,25.049,0,0,0,5.99,2.365,22.139,22.139,0,0,0,6,.692q4.749-.133,7.015-1.8a4.958,4.958,0,0,0,2.2-4.321,3.852,3.852,0,0,0-1.412-2.981,9.624,9.624,0,0,0-3.413-1.758q-2.056-.622-5.593-1.384a58.75,58.75,0,0,1-7.96-2.09,13.566,13.566,0,0,1-5.373-3.522,9.686,9.686,0,0,1-2.375-6.6,11.387,11.387,0,0,1,1.758-6.528,13.272,13.272,0,0,1,5.761-4.791,24.01,24.01,0,0,1,9.571-1.995A33.021,33.021,0,0,1,1619.793,1232.869Z" transform="translate(-1206.175 -489.096)"/>
        <path id="Path_212" data-name="Path 212" d="M1582.824,1237.884l.545-6.7,32.276,2.632-3.5,43.033-31.417-2.56.544-6.7,23.422,1.9.912-11.188-20.78-1.689.535-6.58,20.783,1.693.966-11.867Z" transform="translate(-1235.983 -490.383)"/>
        <path id="Path_213" data-name="Path 213" d="M1565.714,1270.826l8.91-42.249,6.459,1.364,17.26,33.521,6.035-28.607,7.789,1.642-8.917,42.249-6.456-1.364-17.261-33.521-6.038,28.607Z" transform="translate(-1272.417 -496.699)"/>
        <path id="Path_214" data-name="Path 214" d="M1576.095,1263.113l13.542,4.629-2.193,6.418-34.672-11.85,2.2-6.422,13.54,4.629,11.774-34.436,7.587,2.594Z" transform="translate(-1303.824 -502.754)"/>
        <path id="Path_215" data-name="Path 215" d="M1530.7,1251.166l22.4-36.913,5.644,3.423,5.185,37.348,15.167-24.995,6.805,4.129-22.4,36.91-5.644-3.423-5.188-37.345-15.163,24.991Z" transform="translate(-1357.4 -531.463)"/>
        <path id="Path_216" data-name="Path 216" d="M1564.083,1222.508a21.222,21.222,0,0,1,1.4,11.435,22.933,22.933,0,0,1-14.423,17.607,21.252,21.252,0,0,1-11.483.88,26.157,26.157,0,0,1-18.419-15.088,21.319,21.319,0,0,1-1.422-11.408,23.055,23.055,0,0,1,14.46-17.655,21.315,21.315,0,0,1,11.466-.856,26.145,26.145,0,0,1,18.419,15.084Zm-19.094-7.741a14.035,14.035,0,0,0-7.635.761,16.4,16.4,0,0,0-9.89,12.072,14.081,14.081,0,0,0,.761,7.638,16.5,16.5,0,0,0,12.028,9.849,14.054,14.054,0,0,0,7.635-.761,16.411,16.411,0,0,0,9.89-12.072,14.017,14.017,0,0,0-.761-7.638,16.5,16.5,0,0,0-12.028-9.849Z" transform="translate(-1384.567 -549.046)"/>
        <path id="Path_217" data-name="Path 217" d="M1553.28,1214.589a21.167,21.167,0,0,1-.154,11.452,22.006,22.006,0,0,1-6.3,9.972,21.768,21.768,0,0,1-10.4,5.579,21.336,21.336,0,0,1-11.456-.654,24.328,24.328,0,0,1-10.157-6.675,24.633,24.633,0,0,1-5.256-8.341,19.754,19.754,0,0,1-1.128-9.074l7.1.462a15.113,15.113,0,0,0,4.174,11.884,16.212,16.212,0,0,0,6.85,4.489,14,14,0,0,0,7.693.329,16.535,16.535,0,0,0,11.452-10.691,13.986,13.986,0,0,0,.2-7.7,16.151,16.151,0,0,0-4.006-7.141,15.038,15.038,0,0,0-11.617-4.938l.069-7.155a19.707,19.707,0,0,1,9,1.772,24.788,24.788,0,0,1,7.984,5.839A24.275,24.275,0,0,1,1553.28,1214.589Z" transform="translate(-1411.733 -574.853)"/>
        <path id="Path_218" data-name="Path 218" d="M1545.423,1207.56a21.229,21.229,0,0,1-1.634,11.4,22.936,22.936,0,0,1-18.515,13.234,21.239,21.239,0,0,1-11.318-2.152,26.135,26.135,0,0,1-13.841-19.368,21.383,21.383,0,0,1,1.607-11.387,23.055,23.055,0,0,1,18.569-13.265,21.306,21.306,0,0,1,11.292,2.166,26.127,26.127,0,0,1,13.84,19.371Zm-16.407-12.46a14.074,14.074,0,0,0-7.57-1.261,16.407,16.407,0,0,0-12.7,9.074,14.056,14.056,0,0,0-1.257,7.57,16.483,16.483,0,0,0,9.033,12.648,14.05,14.05,0,0,0,7.573,1.261,16.4,16.4,0,0,0,12.7-9.071,14.036,14.036,0,0,0,1.265-7.573,16.528,16.528,0,0,0-9.04-12.648Z" transform="translate(-1432.047 -600.152)"/>
        <path id="Path_219" data-name="Path 219" d="M1504.018,1223.072l-8.68-16.764a27.142,27.142,0,0,1-3.259-12.134,19.883,19.883,0,0,1,2.91-10.884,23.11,23.11,0,0,1,20.1-10.407,19.863,19.863,0,0,1,10.565,3.906,27.083,27.083,0,0,1,8.025,9.667l8.677,16.764Zm23.813-33.167a18.352,18.352,0,0,0-5.459-6.586,13.012,13.012,0,0,0-7.155-2.546,16.624,16.624,0,0,0-13.858,7.176,13.025,13.025,0,0,0-2.049,7.31,18.3,18.3,0,0,0,2.228,8.258l4.818,9.314,26.293-13.611Z" transform="translate(-1451.115 -631.958)"/>
        <path id="Path_220" data-name="Path 220" d="M1519.317,1162.126l6.315-2.3,11.075,30.43-40.573,14.769-10.781-29.621,6.319-2.3,8.039,22.082,10.548-3.838-7.131-19.591,6.2-2.258,7.131,19.591,11.185-4.071Z" transform="translate(-1467.431 -663.542)"/>
        <path id="Path_221" data-name="Path 221" d="M1503.187,1163.293a5.091,5.091,0,0,1-9.424-1.12,4.9,4.9,0,0,1,3.595-6.234,5.082,5.082,0,0,1,5.829,7.354Z" transform="translate(-1447.535 -673.496)"/>
        <path id="Path_222" data-name="Path 222" d="M1480.951,1145.067l45.967,10.263,1.5,7.748-38.8,26.739-1.652-8.539,29.971-20.441-35.457-7.9Z" transform="translate(-1478.116 -699.361)"/>
        <path id="Path_223" data-name="Path 223" d="M1481.459,1151.741l-.833-7.974,42.941-4.5.836,7.978Z" transform="translate(-1478.905 -713.434)"/>
        <path id="Path_224" data-name="Path 224" d="M1480.433,1166.672l-.305-18.874a27.111,27.111,0,0,1,2.484-12.312,19.8,19.8,0,0,1,7.45-8.45,23.1,23.1,0,0,1,22.634-.367,19.818,19.818,0,0,1,7.72,8.2,27.148,27.148,0,0,1,2.885,12.23l.305,18.871Zm36.087-19.094a18.337,18.337,0,0,0-1.953-8.327,13.025,13.025,0,0,0-5.271-5.466,16.64,16.64,0,0,0-15.605.253,13.017,13.017,0,0,0-5.088,5.634,18.364,18.364,0,0,0-1.687,8.385l.172,10.486,29.6-.48Z" transform="translate(-1480.124 -750.762)"/>
        <path id="Path_225" data-name="Path 225" d="M1520.46,1114.52l6.675.8-3.841,32.154-42.876-5.123,3.742-31.3,6.675.8-2.786,23.333,11.144,1.333,2.474-20.7,6.552.785-2.471,20.7,11.819,1.412Z" transform="translate(-1479.41 -781.908)"/>
        <path id="Path_226" data-name="Path 226" d="M1521.406,1135.656a21.218,21.218,0,0,1-9.76,6.117,22.934,22.934,0,0,1-22.062-5.593,21.278,21.278,0,0,1-5.668-10.027,26.145,26.145,0,0,1,5.853-23.079,21.29,21.29,0,0,1,9.732-6.124,23.035,23.035,0,0,1,22.12,5.609,21.309,21.309,0,0,1,5.634,10.02,26.126,26.126,0,0,1-5.85,23.076Zm-1.083-20.571a14.034,14.034,0,0,0-3.927-6.6,16.409,16.409,0,0,0-15.129-3.835,14.086,14.086,0,0,0-6.593,3.927,16.519,16.519,0,0,0-3.821,15.067,14.054,14.054,0,0,0,3.927,6.594,16.42,16.42,0,0,0,15.129,3.838,14.112,14.112,0,0,0,6.6-3.927,16.534,16.534,0,0,0,3.818-15.067Z" transform="translate(-1472.625 -818.252)"/>
        <path id="Path_227" data-name="Path 227" d="M1539.086,1090.519l-7.021,2.752a21.557,21.557,0,0,1-1.319,15.338,20.9,20.9,0,0,1-4.708,6.733,13.4,13.4,0,0,1-6.065,3.4,9.431,9.431,0,0,1-6.257-.627,11.248,11.248,0,0,1-5.449-5.068,24.853,24.853,0,0,1-2.289-9.458,19.036,19.036,0,0,1-5.942,1.35,10.361,10.361,0,0,1-4.695-.925,9.065,9.065,0,0,1-5.28-6.178,13.9,13.9,0,0,1,1.233-9.441,12.894,12.894,0,0,1,5.815-6.566,8.476,8.476,0,0,1,7.621.024,9.247,9.247,0,0,1,4.523,4.345,23.3,23.3,0,0,1,1.96,8.323l11.949-4.777a28.557,28.557,0,0,0-5.617-5.216l4.441-4.818a29.778,29.778,0,0,1,7.36,7.638l6.97-2.779Zm-43.317,4.328a4.127,4.127,0,0,0,2.381,2.721,5.364,5.364,0,0,0,2.889.439,21.669,21.669,0,0,0,4.564-1.306,22.759,22.759,0,0,0-1.083-6.158,4.688,4.688,0,0,0-2.4-2.693,3.736,3.736,0,0,0-3.3-.048,5.572,5.572,0,0,0-2.536,2.875A5.952,5.952,0,0,0,1495.768,1094.847Zm30.413.754-14.673,5.836a17.539,17.539,0,0,0,1.395,6.37,6.553,6.553,0,0,0,3.211,3.132,5.1,5.1,0,0,0,4.982-.366,10.929,10.929,0,0,0,4.157-5.085A14.36,14.36,0,0,0,1526.181,1095.6Z" transform="translate(-1456.898 -857.965)"/>
        <path id="Path_228" data-name="Path 228" d="M1514.375,1064.232a14.211,14.211,0,0,1,7.98-2.282,16.194,16.194,0,0,1,13.526,9.232,14.108,14.108,0,0,1,.809,8.279,23.882,23.882,0,0,1-3.985,9.119l-5.49,8.049,10.291,7.025-4.517,6.624-35.669-24.34,10.017-14.67A23.915,23.915,0,0,1,1514.375,1064.232Zm15.173,13a8.8,8.8,0,0,0-10.5-7.162q-3.362.992-6.319,5.322l-5.284,7.741,14.163,9.667,5.284-7.745Q1529.849,1080.732,1529.549,1077.236Z" transform="translate(-1438.393 -901.08)"/>
        <path id="Path_229" data-name="Path 229" d="M1542.263,1070.013l-14.183,16.274,4.736,9.773-5.432,6.233-19.783-43.016,5.185-5.952,45.36,13.673-5.514,6.326Zm-6.487-2.135-19.581-6.261,8.923,18.491Z" transform="translate(-1413.443 -921.998)"/>
        <path id="Path_230" data-name="Path 230" d="M1564.734,1073.1l-15-3.563a16.025,16.025,0,0,1-1.2,1.155l-7.271,6.487,8.375,9.389-5.983,5.339-28.744-32.222,13.258-11.826a23.985,23.985,0,0,1,8.529-5.126,14.233,14.233,0,0,1,8.3-.292,14.886,14.886,0,0,1,7.117,4.647,14.606,14.606,0,0,1,3.811,7.84,14.149,14.149,0,0,1-1.6,8.451l16.853,3.975Zm-24.909-23.569q-3.505.149-7.416,3.639l-7,6.24,11.452,12.844,7-6.24q3.912-3.5,4.441-6.98a7.835,7.835,0,0,0-2.224-6.569A7.739,7.739,0,0,0,1539.825,1049.53Z" transform="translate(-1395.708 -949.591)"/>
        <path id="Path_231" data-name="Path 231" d="M1539.871,1051.208l-11.675,8.276-3.924-5.534,29.892-21.191,3.923,5.538-11.675,8.275,21.047,29.69-6.542,4.636Z" transform="translate(-1372.986 -971.909)"/>
        <path id="Path_232" data-name="Path 232" d="M1569.232,1025.863l20.543,37.975-5.8,3.143-34.854-14.386,13.909,25.715-7,3.787-20.547-37.975,5.809-3.142,34.854,14.385-13.916-25.715Z" transform="translate(-1345.775 -988.642)"/>
        <path id="Path_233" data-name="Path 233" d="M1592.918,1054.373l2.423,6.271-30.21,11.672-15.561-40.275,29.4-11.359,2.422,6.271-21.921,8.468,4.047,10.475,19.446-7.515,2.382,6.158-19.45,7.512,4.291,11.106Z" transform="translate(-1311.597 -1001.217)"/>
        <path id="Path_234" data-name="Path 234" d="M1599.968,1058.091,1588.314,1048c-.346.13-.884.284-1.6.466l-9.448,2.4,3.091,12.2-7.772,1.97-10.605-41.858,17.223-4.359a23.857,23.857,0,0,1,9.931-.61,14.257,14.257,0,0,1,7.491,3.574,14.849,14.849,0,0,1,4.167,7.409,14.591,14.591,0,0,1-.243,8.714,14.126,14.126,0,0,1-5.315,6.758l13.107,11.312Zm-11.2-32.414q-3.177-1.485-8.259-.2l-9.088,2.3,4.229,16.681,9.084-2.3q5.083-1.29,7.162-4.14a8.823,8.823,0,0,0-3.128-12.346Z" transform="translate(-1281.481 -1007.899)"/>
        <path id="Path_235" data-name="Path 235" d="M1585.978,1059.772a20.086,20.086,0,0,1-7.8-2.765l1.933-6.538a21.845,21.845,0,0,0,6.9,2.539,23.619,23.619,0,0,0,7.848.3q4.77-.632,6.918-2.474a4.67,4.67,0,0,0,1.823-4.348,3.944,3.944,0,0,0-1.713-2.851,9.342,9.342,0,0,0-3.581-1.426q-2.108-.4-5.706-.8a63.976,63.976,0,0,1-8.228-1.278,13.142,13.142,0,0,1-5.678-2.947,9.9,9.9,0,0,1-3.056-6.411,11.527,11.527,0,0,1,1.072-6.706,13.167,13.167,0,0,1,5.2-5.383,23.758,23.758,0,0,1,9.283-2.971,30.892,30.892,0,0,1,7.833-.041,21.5,21.5,0,0,1,6.912,1.946l-1.689,6.511a24.778,24.778,0,0,0-6.2-1.73,22.13,22.13,0,0,0-6.045-.072q-4.709.622-6.8,2.515a4.945,4.945,0,0,0-1.73,4.523,3.837,3.837,0,0,0,1.71,2.824,9.649,9.649,0,0,0,3.577,1.391q2.1.406,5.706.8a58.909,58.909,0,0,1,8.129,1.254,13.591,13.591,0,0,1,5.708,2.947,9.67,9.67,0,0,1,3.043,6.319,11.349,11.349,0,0,1-1.072,6.675,13.249,13.249,0,0,1-5.233,5.359,24.038,24.038,0,0,1-9.314,2.975A32.972,32.972,0,0,1,1585.978,1059.772Z" transform="translate(-1248.595 -1013.926)"/>
      </g>
    </g>
  </g>
</svg>
