<svg xmlns="http://www.w3.org/2000/svg" viewBox="0 0 125.11 108.35"><defs><style>.cls-1{fill:#4452ff;}.cls-2{fill:#fff;}</style></defs><g id="Layer_2" data-name="Layer 2"><g id="Layer_1-2" data-name="Layer 1"><polygon class="cls-1" points="93.83 0 31.28 0 0 54.17 31.28 108.35 93.83 108.35 125.11 54.17 93.83 0"/><path class="cls-2" d="M67.82,74.25,64.06,48.92c-.34.85-.55,1.33-.74,1.82-1.5,3.93-3,7.88-4.5,11.79C57,67.15,54.35,71.14,49.55,73.1a46.21,46.21,0,0,1-6,1.56C41.21,60.89,39,47.52,36.65,33.84a29.67,29.67,0,0,1,3.11.48,13,13,0,0,1,9.81,11.8c.2,2.47.35,5,.5,7.43s.28,5,.64,7.53c.17-.38.35-.76.49-1.15,1.87-4.89,3.72-9.79,5.6-14.68a20.35,20.35,0,0,1,4.81-7.66,13.18,13.18,0,0,1,9.72-3.82c.62,4.61,1.21,9.1,1.81,13.59s1.2,9,1.84,13.76a6.63,6.63,0,0,0,.45-.92c1.48-4.69,2.91-9.38,4.42-14.05A19.17,19.17,0,0,1,86,36.74a13.74,13.74,0,0,1,9.15-3.05C94,36.4,93,39,92,41.5q-4.2,10.41-8.38,20.82A21.42,21.42,0,0,1,78.74,70,15.18,15.18,0,0,1,67.82,74.25Z"/></g></g></svg>